# xmcd
#
# Track frame offsets:
# 150
# 17752
# 31705
# 47537
# 61457
# 77937
# 94535
# 108295
# 124042
# 139297
# 153537
# 166947
# 185350
# 197584
# 212652
# 225907
# 242277
# 255075
# 273857
# 292487
# 305250
#
# Disc length: 4252 seconds
#
#
# Revision: 3
# Processed by: cddbd v1.5.1PL2 Copyright (c) Steve Scherf et al.
# Submitted via: FreeRIP 2.945 
#
DISCID=0e109a15
DTITLE=Edith Piaf - On Dance Sur Ma Chanson
DYEAR=1987
DGENRE=Chanson
TTITLE0=C'Etait Un Jour De Fete
TTITLE1=Le Chacal
TTITLE2=Ding Din Don
TTITLE3=J'Entends La Sirene
TTITLE4=Le Marins Ca Fait Des Voyages
TTITLE5=La Mauvait Matelot
TTITLE6=La Deux Copains
TTITLE7=Ou Sont Ils Mes Petits Copains
TTITLE8=La Vagabond
TTITLE9=Le Brun Et La Blond
TTITLE10=Escale
TTITLE11=Le Disque Us
TTITLE12=Un Coin Tout Bleu
TTITLE13=Madelaine Qu'Avait Du Coeur
TTITLE14=Simple Conne Bonjour
TTITLE15=C'est Un Monsieur Tres Distingue
TTITLE16=Le Petite Monsieur Triste
TTITLE17=On Dance Sur Ma Chanson
TTITLE18=C'est La Moindre Des Choses
TTITLE19=Tout Est Partout
TTITLE20=La Java En Mineur
EXTD=
EXTT0=
EXTT1=
EXTT2=
EXTT3=
EXTT4=
EXTT5=
EXTT6=
EXTT7=
EXTT8=
EXTT9=
EXTT10=
EXTT11=
EXTT12=
EXTT13=
EXTT14=
EXTT15=
EXTT16=
EXTT17=
EXTT18=
EXTT19=
EXTT20=
PLAYORDER=
